<?xml version="1.0" encoding="utf-8"?>
<!-- Generator: Adobe Illustrator 24.3.0, SVG Export Plug-In . SVG Version: 6.00 Build 0)  -->
<svg version="1.1" id="Layer_1" xmlns="http://www.w3.org/2000/svg" xmlns:xlink="http://www.w3.org/1999/xlink" x="0px" y="0px"
	 viewBox="0 0 388.19 183.23" style="enable-background:new 0 0 388.19 183.23;" xml:space="preserve">
<style type="text/css">
	.st0{display:none;fill:#5C56A1;}
	.st1{fill:none;stroke:#000000;stroke-width:38;stroke-miterlimit:10;}
	.st2{clip-path:url(#SVGID_2_);fill:none;stroke:#000000;stroke-width:38;stroke-miterlimit:10;}
</style>
<path id="cm" class="st1" d="M152.82,52.04c0,0-1.76-2-2.95-3.46c-19.43-23.89-43-32.9-72.07-27.55
	c-18.58,3.42-34.73,13.95-45.48,29.65c-11,16.07-15.05,35.49-11.39,54.69c6.12,32.13,33.36,56.19,66.25,58.5
	c12.15,0.85,23.97-1.36,35.12-6.56c8.01-3.74,15.62-9.39,23.94-17.77c31.94-32.13,64.51-64.65,96-96.11c0,0,20.36-20.27,24.67-24.56"/>
<g>
	<defs>
		<polygon id="SVGID_1_" points="388.19,48.29 388.19,179.61 162.66,179.61 293.54,48.29"/>
	</defs>
	<clipPath id="SVGID_2_">
		<use xlink:href="#SVGID_1_"  style="overflow:visible;"/>
	</clipPath>
	<line class="st2" x1="321.28" y1="65.91" x2="186.78" y2="200.42"/>
	<line class="st2" x1="373.14" y1="113.5" x2="287.18" y2="199.84"/>
</g>
</svg>
